<svg width="44" height="50" xmlns="http://www.w3.org/2000/svg">
  <g fill="none" fill-rule="evenodd">
    <path fill="#FFF" d="M22.1750294.00046655L1.35005871 11.9439706v23.8871278L22.1750294 47.7747222 43 35.8310984V11.9439706z"/>
    <path d="M22 47.90788L1.84101964 36.45394S7.61810896-1.79498302 22 16.3229741C36.381891-1.79498302 42.1589804 36.45394 42.1589804 36.45394L22 47.90788zM22 0L0 12.4999373v25L22 50l22-12.5000627v-25L22 0z" fill="#423D2D"/>
    <path d="M28.9823818 26.7176932C28.4931284 25.1811671 25.5540587 24 22 24c-3.5541855 0-6.4931284 1.1811671-6.9823818 2.7176932H15l.0144495.0108364L22 32l6.9855505-5.2714704L29 26.7176932h-.0176182" fill="#FFCC05"/>
  </g>
</svg>
