<svg width="265" height="92" xmlns="http://www.w3.org/2000/svg" xmlns:xlink="http://www.w3.org/1999/xlink">
  <defs>
    <path id="a" d="M.38685556.05764542H26.3499063V13.7015709H.38685556z"/>
    <path id="c" d="M.04018073.05764542H27.120399V13.7015709H.04018073z"/>
    <path id="e" d="M.22770114.28469778H26.3605429V13.7015709H.22770114z"/>
  </defs>
  <g fill="none" fill-rule="evenodd">
    <path fill="#FFF" d="M133.1750294.00046655L112.35005871 11.9439706v23.8871278l20.82497069 11.9436238L154 35.8310984V11.9439706z"/>
    <path d="M133 47.90788l-20.15898036-11.45394S118.61810896-1.79498302 133 16.3229741C147.381891-1.79498302 153.1589804 36.45394 153.1589804 36.45394L133 47.90788zM133 0l-22 12.4999373v25L133 50l22-12.5000627v-25L133 0z" fill="#423D2D"/>
    <path d="M139.9823818 26.7176932C139.4931284 25.1811671 136.5540587 24 133 24c-3.5541855 0-6.4931284 1.1811671-6.9823818 2.7176932H126l.0144495.0108364L133 32l6.9855505-5.2714704L140 26.7176932h-.0176182" fill="#FFCC05"/>
    <g fill="#423D2D">
      <path d="M97.90097847 67.8964254c-.7458317 0-1.42003914-.1061407-2.02285714-.3186552-.60317025-.2122813-1.1183953-.5308199-1.5460274-.9556158-.42751467-.4247959-.75651663-.9501338-.98677103-1.5764803C93.1151859 64.41932762 93 63.69243911 93 62.86465866v-6.58386964h2.00630137v6.50210635c0 1.06758833.25913894 1.87880617.77753425 2.43435333.51792563.5553139 1.23463796.8330292 2.15001957.8330292.90399217 0 1.61518591-.2667513 2.13346379-.8004872.51827789-.53350254.77741683-1.32874096.77741683-2.38513204v-6.58386964h2.00653621v6.48577702c0 .84947513-.11800392 1.59572556-.3536595 2.23805146-.23600782.6427924-.56735812 1.179211-.99510763 1.6093722-.42739726.4303945-.94544031.7514992-1.55412916.9637805-.60845401.2125145-1.29099804.3186552-2.04739726.3186552M108.1999524 68c-.5427935 0-1.0927264-.1111242-1.6499006-.3325502-.5571741-.2215435-1.0738581-.5485728-1.5500518-.9809703l.7715582-1.3520498c.409288.3512275.8260212.6170563 1.2498938.7980735.4236686.1807824.8307127.2713497 1.2213364.2713497.3715515 0 .6593687-.0849289.8643696-.2544344.204695-.1697404.3070935-.3966874.3070935-.6813109v-.0327734c0-.1642194-.0452838-.306355-.1356474-.4266416-.0906696-.1204041-.2143841-.22436275-.3715515-.3121109-.1569634-.08727828-.3380985-.16962293-.5427935-.24621168-.2048989-.07647128-.4168352-.15341243-.6357069-.2298837-.2762923-.08739575-.5548284-.19147187-.8356082-.31175849-.2809839-.12052156-.5334104-.2764008-.7571776-.46799013-.2239712-.19158934-.4071462-.4295783-.5499329-.71408435-.1428887-.28462351-.2142821-.63467637-.2142821-1.05062845v-.03300834c0-.40491013.0689456-.7715259.2070408-1.09984729.1378912-.32832139.3287154-.60754141.5714528-.83730765.2428395-.2298837.5285149-.40491013.8571283-.52507929C107.3357868 59.06037825 107.6857162 59 108.0571657 59c.4760917 0 .957181.08857042 1.4427578.2659462.4857808.17737578.9287256.42123811 1.3286304.73146952l-.6856822 1.42112064c-.3620663-.25208505-.7286202-.45236697-1.1000697-.60049337-.3713474-.14812639-.7141376-.22213086-1.0285743-.22213086-.333407 0-.5927689.08234465-.7784936.24621168-.1856228.1643369-.2785361.37237167-.2785361.62386938v.0327734c0 .1531775.0475276.28744274.1427867.40232586.0951572.11488312.2215234.21884177.3785888.31187595.1571674.09315165.3378946.18066487.5428955.26265711.204695.08234465.4165293.16151768.6356049.23810643.2761903.09855515.5522786.2133208.8285709.34476683.2760884.13144602.5261691.29284623.7501403.48420063.2235632.1917068.4069421.42429226.5499328.69787384.1427867.27346411.2142821.60754141.2142821 1.00140956v.0328909c0 .45965-.0714954.8591566-.2142821 1.1985199-.1429907.3392459-.3407503.6211677-.5928708.845178-.2524266.2244802-.5499329.3939857-.892825.5089863-.3428921.1147656-.709548.1724421-1.1000697.1724421M120.1213027 62.88759605c-.0312967-.31579357-.0993671-.61257888-.2034286-.89035594-.1046205-.27754383-.2454557-.51707115-.4227293-.71869858-.1776089-.20116096-.3889735-.36185651-.6342056-.48173678-.2452322-.11976366-.5244436-.1797038-.8375225-.1797038-.584578 0-1.0673299.20967387-1.4480321.62890498-.3812611.41934774-.6133039.96650557-.6967991 1.64159012h4.2427172zM118.2427172 68c-.5950847 0-1.1507132-.1090351-1.6673326-.3267554-.5167312-.2176037-.9655038-.522552-1.3465413-.9146118-.3810376-.3920599-.6809272-.8628348-.900116-1.412908C114.1095385 64.79588478 114 64.18878681 114 63.52443085v-.0325356c0-.62074193.0990318-1.20323412.2974306-1.74770981.1981753-.54435907.4774985-1.02084818.8374108-1.42911748.3601358-.40850253.7854358-.72954378 1.2760119-.96382342C116.9014293 59.11719813 117.4442038 59 118.039065 59c.6575664 0 1.2340967.12536118 1.7300379.37585032.4956059.25048913.9079401.5879731 1.2366674 1.01256851.3289509.42471203.5767538.91752724.7437442 1.47809581.1668786.56115163.2504855 1.15169027.2504855 1.7724322 0 .08722806-.0026826.17702165-.0078242.26949739-.0053651.09259235-.0131893.18775023-.0235843.28582349h-6.0743576c.1042851.70785338.3731015 1.24941368.8063375 1.62514738.4329007.3757337.9573443.563484 1.5733308.563484.4697861 0 .8767552-.0869949 1.2212426-.2613344.3442639-.1739896.683498-.4300763 1.0175904-.7676769l1.1115924 1.0290113c-.3967977.490133-.8690428.8820762-1.4168471 1.1760628C119.6594526 67.8529484 119.004457 68 118.2427172 68zM124 59.17108599h1.9741919v1.98974389c.2695178-.66877934.6524803-1.20396995 1.1486565-1.60521368.4961761-.40124373 1.1218548-.58509238 1.8771516-.55178474v2.14040429h-.1132137c-.4315981 0-.8253044.07258441-1.1813497.21727569-.3559299.14516881-.6634551.3624445-.9223447.65218521-.2588896.29021824-.4586308.65505039-.5986461 1.09533211-.1403618.44052049-.2102539.95052144-.2102539 1.53000287V68H124v-8.82891401M131 56h1.991724v10.0971789H139V68h-8V56M147.9560676 63.2680284l-1.9889289-4.76587644-1.9728503 4.76587644h3.9617792zM145.0629841 56h1.8737971L152 68h-2.1370394l-1.1671621-2.8765633h-5.4411236L142.0710821 68H140l5.0629841-12zM153 59.1837051h2.0590743v1.38333156c.1456824-.213508.3055836-.4127106.4797035-.59796545.1737585-.18525485.3755931-.35083978.6057448-.49711243.2299107-.14591502.4825955-.26107344.7573316-.34535605.2748565-.08428261.586224-.12660273.933982-.12660273 1.0097754 0 1.7896401.30637385 2.3394737.91840627.5494721.61227085.8246901 1.43590389.8246901 2.47125676V68h-2.0591948v-4.99747006c0-.68856629-.1644801-1.21893876-.4935608-1.59087899-.3292013-.37217866-.7949271-.55814878-1.3971774-.55814878-.5912849 0-1.0707475.1919307-1.4387492.57471919-.3682427.38326534-.5522435.91924076-.5522435 1.60756862V68H153v-8.8162949M167.5082966 66.1577624c.3286871 0 .6461943-.0701423.9528747-.2104269.3065628-.1404099.5749964-.342069.8049479-.605228.2298338-.2631589.4134184-.5759184.5504008-.93865434.1369824-.36236017.2054735-.76592895.2054735-1.21058108v-.0349459c0-.44440163-.0684911-.8509765-.2054735-1.21922362-.1369824-.36862288-.320567-.68138242-.5504008-.93865439-.2299515-.25714671-.4983851-.45630076-.8049479-.59658538-.3066804-.14028461-.6241876-.21055217-.9528747-.21055217-.3395138 0-.6599631.06751197-.9611125.20190964-.3015024.13452293-.5668763.33054563-.7969455.58756708-.2299515.25752248-.4108294.57028202-.542163.93852913-.1313336.36862288-.1970004.7808342-.1970004 1.23700971v.0349459c0 .44465213.0656668.8509765.1970004 1.21947412.1313336.36824712.3122115.6812572.542163.9385291.2300692.2573973.4954431.4560503.7969455.5964602.3011494.1402846.6215987.2104269.9611125.2104269zM167.038626 68c-.5167436 0-1.0166586-.1052135-1.4999804-.3158909-.4836748-.2105522-.9122743-.5200551-1.2857983-.9297613-.3737595-.4092053-.6757326-.9122258-.9065079-1.5088112C163.1155642 64.64907649 163 63.96493848 163 63.19287208v-.0349459c0-.77194115.112269-1.45620442.3371602-2.05266454.2247735-.59646013.5233338-1.09923017.8963871-1.50868589.3727003-.40945573.8029473-.71958493 1.2908587-.93001186.4877937-.21055217.9892386-.31576564 1.50457-.31576564.7124495 0 1.3045099.16395765 1.7758281.49124667.4713181.32753953.8661427.70793629 1.184356 1.14043877V55H172v12.8069834h-2.0108399l.0164756-1.5438823c-.3189194.4797233-.7171568.8890538-1.1951829 1.2279914C168.3325444 67.8304059 167.7415432 68 167.038626 68z"/>
    </g>
    <g>
      <path fill="#423D2D" d="M0 78h9.4110404v2.17584598h-7.194236v3.5293346h6.37680353v2.1766606H2.2168044v3.66700512h7.28518763v2.1762533H0V78M12.6693227 78h2.4126032l3.9224407 6.48965819L22.9264247 78h2.4122207v13.7250996h-2.2465861v-9.84303519l-4.0693314 6.47092199h-.0738278l-4.0326087-6.43182031v9.80393351h-2.2469687V78"/>
      <g transform="translate(29.561753 78)">
        <mask id="b" fill="#fff">
          <use xlink:href="#a"/>
        </mask>
        <path d="M5.42188708 7.15548264c.88756169 0 1.58878664-.22038588 2.10249301-.66272624.51410032-.44234035.7709535-1.01095162.7709535-1.70622595v-.03803813c0-.78350712-.26000476-1.3736864-.78040822-1.77171429-.52040346-.39802789-1.21768894-.5972379-2.09303829-.5972379H2.7008979v4.77594251h2.72098918zM.38685556.28469778h5.2343685c.77134745 0 1.47020872.10313432 2.09540197.31097154.62598115.20783723 1.15702117.5070444 1.59351401.89683723.43570494.39018497.77095346.85605406 1.00495776 1.39682299.2336104.54116107.3510064 1.1454576.3510064 1.81249744v.03764599c0 .74272396-.1394571 1.39407797-.4187652 1.95366989-.27852025.56037621-.65867872 1.02899032-1.14008146 1.40623449-.48140275.37763631-1.04592823.66468696-1.69200066.85919123-.64646637.19528856-1.33744871.29293284-2.07255307.29293284H2.7008979v4.24733008H.38685556V.28469778zM19.4278706 11.5926113c.6543453 0 1.2559018-.1231338 1.8034875-.3682248.5471919-.2458754 1.0163823-.5788071 1.4063894-1.0007559.3904011-.42155661.6957097-.91605234.9159259-1.48191859.2206101-.56665054.3309151-1.17055492.3309151-1.81249744v-.03764599c0-.64155037-.110305-1.24898406-.3309151-1.82151679-.2202162-.57292487-.5286764-1.07016562-.9249867-1.49172225-.3970981-.42116449-.8718038-.75801764-1.4264806-1.00977519-.553495-.25136539-1.1578091-.37763631-1.8129423-.37763631-.6539513 0-1.2551138.12274161-1.8026996.36783267-.5475858.24587536-1.0167762.5791992-1.4071773 1.00075584-.3904011.42155663-.6953157.91526807-.9163198 1.48231075-.2198222.56586625-.3301272 1.17016278-.3301272 1.81249744v.03725384c0 .64194252.110305 1.24898407.3301272 1.82190894.2210041.57292487.5294643 1.06977348.9257745 1.49093798.3963103.4223409.8718039.7584098 1.4260867 1.0101673.553889.2521497 1.1578091.3780285 1.8129423.3780285zm-.0386068 2.1324883c-1.0238672 0-1.9594904-.1792106-2.8060816-.5380239-.8473791-.3584212-1.5742106-.8458583-2.1812823-1.4630956-.6070717-.6160609-1.0805956-1.3372169-1.4221473-2.16111499-.3411577-.82468241-.5117366-1.7023045-.5117366-2.63365054v-.03764599c0-.93134604.1705789-1.80896812.5117366-2.63365054.3415517-.82389812.8217726-1.54779909 1.4414506-2.17131075.6188902-.62233524 1.3524187-1.11643882 2.1997979-1.48113432.8465912-.3654798 1.7826083-.54782755 2.8068695-.54782755s1.9590965.17921059 2.8064756.5380239c.8469852.35920547 1.5746046.84664258 2.1808884 1.46309562.6070717.61684519 1.0813834 1.33760899 1.4225412 2.16150711.3415517.82468242.5121305 1.7023045.5121305 2.63404269v.03725384c0 .93134605-.1705788 1.80936028-.5121305 2.6332584-.3411578.82468242-.8221666 1.54819122-1.4414507 2.17091862-.619284.6231195-1.3532065 1.1172231-2.1997978 1.4823107-.8473791.3643034-1.7826083.5470433-2.8072635.5470433z" fill="#423D2D" mask="url(#b)"/>
      </g>
      <path fill="#423D2D" d="M57.0119522 78.03951874h2.5552666l3.2090509 10.07485866L66.0811131 78h1.9984723l3.3048435 10.1143774 3.2082525-10.07485866h2.4790317L72.3834655 91.7250996h-2.0367894l-3.3052426-9.76516077-3.3048434 9.76516077h-2.0367894l-4.6878485-13.68558086M79.1832669 78h9.4110404v2.17584598h-7.194236v3.5293346h6.3764262v2.1766606h-6.3764262v3.66700512h7.2851877v2.1762533h-9.5019921V78M97.7677979 84.80328631c.8626091 0 1.5493662-.20650579 2.0590529-.61992467.5096862-.41341889.7647332-.97469103.7647332-1.68381642v-.03910169c0-.74781977-.248549-1.31683078-.7448331-1.70336726-.4970968-.38735109-1.1968499-.58123029-2.0988531-.58123029h-3.510137v4.62744033h3.5300371zM91.8525896 78h6.0999951c.8601724 0 1.6224687.12056354 2.2872953.36250523.664826.24194169 1.218374.57797182 1.661863 1.0093123.3647.37920491.644926.81746966.840272 1.31397963.196158.49732458.293628 1.04637744.293628 1.64675127v.03991631c0 .56208675-.081225 1.06837214-.244081 1.51926348-.163668.45089133-.388255.84964708-.674573 1.19585994-.287131.34702747-.629494.64110475-1.026684.88263913-.397596.24194169-.837835.42808202-1.3199056.55842097l3.6957356 5.19645134h-2.835563l-3.3728669-4.78425438h-3.0199443v4.78425438h-2.3851712V78zM105.577689 91.7250996h2.111554V78h-2.111554z"/>
      <g transform="translate(111.912351 78)">
        <mask id="d" fill="#fff">
          <use xlink:href="#c"/>
        </mask>
        <path fill="#423D2D" mask="url(#d)" d="M.04018073.28469778h2.17890929l7.16728679 9.13660273V.28469778h2.33605169V13.4988315H9.75397078L2.37702812 4.0971383v9.4016932H.04018072V.28469778M21.5277193 13.7250996c-1.0470859 0-1.998295-.1729363-2.8532294-.5192009-.8553323-.3458725-1.586542-.8238981-2.1928333-1.4340768-.6070871-.6105709-1.0757296-1.3278054-1.4075189-2.15248781-.3321872-.82389812-.4980819-1.72112749-.4980819-2.69011952v-.03764599c0-.91840523.1702708-1.79367444.5108124-2.62423904.3413372-.8305646.8199255-1.55721059 1.4369582-2.18072225.6166349-.62233524 1.3490381-1.11643882 2.1984029-1.48113432.8489671-.3654798 1.7774999-.54782755 2.786792-.54782755.5867977 0 1.1202864.04078315 1.5984768.1227416.4789861.08195845.9225654.19803358 1.3315336.34940183.4085704.15058395.7948623.33685315 1.158478.55684689.3640135.22038589.7184791.47528059 1.062999.76468412l-1.49345 1.75524417c-.2562018-.21371941-.5175755-.40861582-.7857122-.58508139-.2681367-.17568127-.549004-.3235202-.8426018-.44390893-.2935978-.1192123-.6158392-.21371941-.96752-.28234491-.3504874-.06940979-.7367793-.10431076-1.1580802-.10431076-.6130544 0-1.1843368.12627092-1.7138472.37881275-.5299082.25214969-.9897985.58939499-1.3796709 1.01212806-.3890767.42194878-.695405.91683665-.9189849 1.48466363-.2235799.56704269-.334972 1.16624132-.334972 1.79681161v.03764599c0 .68115709.1082095 1.31133523.3242306 1.89171087.2168168.57959135.5255321 1.07840068.9273393 1.49446725.4006138.4156745.8784064.7439004 1.4325822.9835014.5541757.2399932 1.1751868.3592055 1.8626352.3592055.6369242 0 1.2320764-.0917621 1.7862521-.2748941.553778-.1839164 1.035151-.4274388 1.4425279-.7309596V8.13741548h-3.4280923V6.11747297h5.7072545v5.55003813c-.332585.277247-.6993834.5411611-1.1019863.7929186-.4014094.2517576-.8358386.4725356-1.3016964.6607655-.4666534.1890142-.96752.336461-1.5033957.4435168-.5362734.1066636-1.0984058.1603876-1.6856013.1603876"/>
      </g>
      <path fill="#423D2D" d="M145.697211 78.03951874h2.555267l3.209051 10.07485866L154.766372 78h1.998472l3.304844 10.1143774 3.208252-10.07485866h2.479032l-4.687848 13.68558086h-2.037189l-3.305243-9.76516077-3.304444 9.76516077h-2.037188l-4.687849-13.68558086M167.868526 91.7250996h2.111554V78h-2.111554zM177.27391 80.23449851h-4.1265V78h10.557769v2.23449851h-4.126113V91.7250996h-2.305156V80.23449851M185.816733 78h2.221136v5.70518058h6.115875V78h2.220758v13.7250996h-2.220758v-5.78419858h-6.115875v5.78419858h-2.221136V78M205.876494 78h2.366133v11.5488463h7.135859v2.1762533h-9.501992V78M218.545817 91.7250996h2.111554V78h-2.111554z"/>
      <g transform="translate(223.824701 78)">
        <mask id="f" fill="#fff">
          <use xlink:href="#e"/>
        </mask>
        <path fill="#423D2D" mask="url(#f)" d="M.22770114.28469778h2.15764553L9.4822947 9.42130051V.28469778h2.3136484V13.4988315H9.84669531L2.54134953 4.0971383v9.4016932H.22770113V.28469778M20.6522566 13.7062766c-.8603793 0-1.637242-.1223495-2.3329517-.3678327-.6957097-.245091-1.2889933-.6141001-1.7822145-1.1042823-.4932211-.4909664-.8721977-1.0976158-1.1381117-1.8215168-.2651261-.72429306-.39828-1.56387701-.39828-2.52032038V.28469778h2.3132544v7.51272738c0 1.23369038.2993995 2.17131075.8970165 2.81325324.5968291.6415504 1.423723.9627177 2.4791059.9627177 1.0427767 0 1.8629735-.3078343 2.4605905-.9254638.5968291-.6164531.8962285-1.53525046.8962285-2.75560788V.28469778h2.3136484v7.49390438c0 .98193284-.1363055 1.8438691-.4081287 2.58620094-.2714292.7431161-.6535574 1.3623141-1.1467785 1.8595549-.4932212.4976329-1.0908382.8689949-1.7924571 1.1140859-.7016189.2454832-1.4887242.3678327-2.360922.3678327"/>
      </g>
      <path fill="#423D2D" d="M257.263641 84.74463377L252.524347 78h2.8042l3.365923 4.9215176L262.080081 78h2.726651l-4.719204 6.70553209L265 91.7250996h-2.804199l-3.55879-5.19645134-3.578879 5.19645134h-2.727455l4.932964-6.98046583"/>
    </g>
  </g>
</svg>
