<svg width="70" height="70" viewBox="0 0 70 70" xmlns="http://www.w3.org/2000/svg"><g fill="none" fill-rule="evenodd"><path d="M34.5 26.85c1.74-.02 3.51.4 5.14 1.31a10.21 10.21 0 0 1 0 17.88c-.7.4-.95 1.3-.55 2L49.98 67.2a1.47 1.47 0 0 0 2 .55 35 35 0 0 0 13.44-47.88A35.45 35.45 0 0 0 34.57 2" fill="#ffd270"/><path d="M35.5 26.85c-1.74-.02-3.51.4-5.14 1.31a10.21 10.21 0 0 0 0 17.88c.7.4.95 1.3.55 2L20.02 67.2a1.47 1.47 0 0 1-2 .55A35 35 0 0 1 4.57 19.87 35.45 35.45 0 0 1 35.43 2" fill="#FDC44A"/></g></svg>