<svg width="252" height="252" xmlns="http://www.w3.org/2000/svg"><g fill="none" fill-rule="evenodd"><circle fill="#fff4db" cx="126" cy="126" r="126"/><g fill-rule="nonzero"><path d="M90 192l35-23" fill="#fff4db"/><g fill="#fae6b8"><path d="M103.3 154.34l-11.48 37.5 34.02-22.79z"/><path d="M103.3 154.34L92 191.84l-8.79-49.05 117.7-60.59z"/><path d="M198.16 87.49a2.76 2.76 0 0 1-2.5-1.4l-92.35 68.25 57.41 37.5 38.32-104.53c-.28.1-.58.16-.88.18z"/></g><path fill="#fff4db" d="M183.2 93.88L102 154.33 154.2 186 189 91z"/><path d="M191.83 85L32 117.88 81.76 144 194 86.78c-1-.16-1.82-.84-2.17-1.78z" fill="#FFF"/><path d="M183.85 90L42 122.39 82.53 143 186 91.8a2.8 2.8 0 0 1-2.15-1.8z" fill="#fff4db"/><path d="M163.41 190.98c-.56 0-1.1-.16-1.57-.47l-57.73-37.67a2.9 2.9 0 0 1-.14-4.76l69.25-51.12L86.8 141.4c-.84.43-1.83.42-2.67-.02L34.88 115.3a2.9 2.9 0 0 1 .77-5.4l167.53-34.76a2.88 2.88 0 0 1 3.34 3.86l-40.4 110.08a2.88 2.88 0 0 1-2.7 1.9zm-52.65-40.72l51.2 33.41 35.83-97.65-87.03 64.24zm-66.07-36.32l40.81 21.61 98.06-50.42-138.87 28.81z" fill="#ffd476"/><path d="M94.14 190.98a2.9 2.9 0 0 1-1.6-5.3l34.2-22.9a2.88 2.88 0 0 1 4.5 2.22 2.9 2.9 0 0 1-1.3 2.6l-34.2 22.9c-.47.3-1.03.48-1.6.48z" fill="#ffd476"/><path d="M94.32 190.98h-.16a2.89 2.89 0 0 1-2.68-2.38l-8.84-49.27a2.9 2.9 0 0 1 1.52-3.09L202.5 75.4a2.88 2.88 0 0 1 3.77 1.05 2.9 2.9 0 0 1-.74 3.86l-97.36 71.87-11.08 36.75a2.89 2.89 0 0 1-2.77 2.06zm-5.62-50.56l6.34 35.3 7.88-26.15a2.9 2.9 0 0 1 1.05-1.5l69.25-51.11-84.52 43.46z" fill="#ffd476"/><path d="M94.14 190.98a2.88 2.88 0 0 1-2.76-3.75l11.55-37.67a2.9 2.9 0 0 1 4.33-1.58l22.65 14.78a2.9 2.9 0 0 1 .03 4.84l-34.2 22.9c-.47.31-1.03.48-1.6.48zm13.18-36.05l-8.04 26.23 23.8-15.93-15.76-10.3z" fill="#ffd476"/></g></g></svg>