<svg width="70" height="70" viewBox="0 0 70 70" xmlns="http://www.w3.org/2000/svg"><g fill="none" fill-rule="evenodd"><path d="M51.19 20.87l-.7-.7a2 2 0 0 0-2.83 0l-14.83 14.8a2 2 0 0 1-2.82 0l-6-5.99a2 2 0 0 0-2.83 0l-.7.7a2 2 0 0 0 0 2.83l9.53 9.5a2 2 0 0 0 2.82 0l18.36-18.3a2 2 0 0 0 0-2.84z" fill="#f3b42f"/><path d="M34.6 0v4.9h22.66a2 2 0 0 1 2 2v26.72A31.64 31.64 0 0 1 41.54 62.1l-6.94 3.45.27 3.95a1 1 0 0 0 1.46.82l7.42-3.84a36.7 36.7 0 0 0 20.44-32.85V2a2 2 0 0 0-2-2H34.6z" fill="#f3b42f"/><path d="M28.65 62.1a31.64 31.64 0 0 1-17.72-28.48V6.9c0-1.1.9-2 2-2H35.6V0H8a2 2 0 0 0-2 2v31.62a36.7 36.7 0 0 0 20.45 32.85l7.7 3.83a1 1 0 0 0 1.44-.9v-2.62a2 2 0 0 0-1.11-1.8l-5.83-2.89z" fill="#f3b42f"/><path d="M10.93 33.9a31.97 31.97 0 0 0 17.53 28.7l6.87 3.48V39.5l-2.24 2.27a2 2 0 0 1-2.84 0l-9.27-9.38a2 2 0 0 1 0-2.81l.64-.65a2 2 0 0 1 2.84 0l5.79 5.85a2 2 0 0 0 2.84 0l2.24-2.26V4.93h-24.4V33.9z" fill="#fbdb94"/><path d="M50.31 20.2l.64.65a2 2 0 0 1 0 2.8L35.3 39.5v26.58l6.86-3.47A31.97 31.97 0 0 0 59.7 33.9V4.93H35.3v27.59L47.48 20.2a2 2 0 0 1 2.84 0z" fill="#ffd77e"/></g></svg>