<svg width="70" height="70" viewBox="0 0 70 70" xmlns="http://www.w3.org/2000/svg"><g fill="none" fill-rule="evenodd"><path d="M18.62 14.19l-8.06 4.77a2 2 0 0 0-.7 2.76 2.05 2.05 0 0 0 2.8.7l8.26-4.9-2.3-3.33zM57.66 16.08l-.25-.01L36.9 13.5a2.04 2.04 0 1 1 .5-4.03l20.51 2.55a2.04 2.04 0 0 1-.25 4.05z" fill="#ffd77e"/><path d="M62.07 20.81a6.16 6.16 0 1 1 .01-12.31 6.16 6.16 0 0 1-.01 12.31zM8.15 28.38a6.16 6.16 0 1 1 .01-12.31 6.16 6.16 0 0 1-.01 12.3zM26.6 0a10.4 10.4 0 1 0 0 20.82A10.4 10.4 0 0 0 26.6 0z" fill="#f3b42f"/><path d="M37 10.4a10.4 10.4 0 0 1-10.4 10.41V0A10.4 10.4 0 0 1 37 10.4z" fill="#f3b42e"/><path d="M59.7 28.78v17.4c0 8.7-4.13 10.78-4.13 17.08v4.67c0 1.16-.9 2.07-2.06 2.07h-28.9a2.05 2.05 0 0 1-2.06-2.07V64.5a10.4 10.4 0 0 0-3.01-7.33c-1.07-1.37-5.24-3.81-5.24-9.53V32.43a4.15 4.15 0 0 1 4.13-4.14 4.15 4.15 0 0 1 4.12 4.14V12.21c0-2.4 1.82-4.35 4.13-4.6.17-.04.33-.04.5-.04a4.7 4.7 0 0 1 4.73 4.64v12.43c0-2.57 2-4.64 4.6-4.64a4.62 4.62 0 0 1 4.62 4.64A4.62 4.62 0 0 1 45.75 20a4.7 4.7 0 0 1 4.73 4.64v4.14c0-2.57 2-4.64 4.6-4.64a4.62 4.62 0 0 1 4.62 4.64z" fill="#ffd77e"/><path d="M59.7 28.78v17.4c0 8.7-4.14 10.78-4.14 17.08v4.67c0 1.16-.9 2.07-2.07 2.07H26.6V7.6c.17-.03.34-.03.5-.03a4.7 4.7 0 0 1 4.75 4.64v12.43c0-2.57 2-4.64 4.6-4.64a4.63 4.63 0 0 1 4.64 4.64 4.7 4.7 0 0 1 9.38 0v4.14c0-2.57 2-4.64 4.6-4.64a4.63 4.63 0 0 1 4.64 4.64z" fill="#fdcf72"/></g></svg>