<svg viewBox="0 0 205 134" xmlns="http://www.w3.org/2000/svg"><g fill-rule="nonzero" stroke="#FFD477" stroke-width="8" fill="none" stroke-linecap="round" stroke-linejoin="round"><path d="M169.062 57.053C168.679 28.209 145.126 4 116.09 4c-18.498 0-35.868 9.964-45.458 24.325a26.537 26.537 0 0 0-14.718-4.43c-14.701 0-26.62 11.877-26.62 26.526 0 .507.046 1.001.076 1.505-.034.604-.077 1.214-.077 1.81C16.023 60.077 6 75.147 6 90.725 6 112.327 23.736 130 45.415 130h81.55c.459 0 .905-.053 1.357-.07.456.017.902.07 1.361.07h32.62C182.485 130 199 113.544 199 93.433c0-17.809-12.958-33.194-29.938-36.38z" fill="#FFF4DB"/><path d="M169 56.75s-8.614-1.125-17 0" fill="#7FABDA"/><path d="M30 50c0-14.91 11.865-27 26.5-27S83 35.09 83 50" fill="#FFF4DB"/></g></svg>