<svg viewBox="0 0 156 134" xmlns="http://www.w3.org/2000/svg"><g fill="none" fill-rule="evenodd"><path d="M89.706 119.111v-7.444H58.652v7.444c0 4.095-3.494 7.445-7.764 7.445h-7.764c-2.329 0-3.881 1.489-3.881 3.722 0 2.233 1.553 3.722 3.881 3.722h62.109c2.329 0 3.881-1.489 3.881-3.722 0-2.234-1.553-3.722-3.881-3.722h-7.764c-4.27 0-7.763-3.35-7.763-7.445z" fill="#FFD477" fill-rule="nonzero"/><path d="M147.926 111.667H8.088c-4.273 0-7.769-3.34-7.769-7.424v-96.5C.319 3.66 3.815.318 8.088.318h139.838c4.273 0 7.77 3.34 7.77 7.423v96.501c0 4.083-3.497 7.424-7.77 7.424z" fill="#FFF4DB" fill-rule="nonzero"/><g fill="#FFD477" fill-rule="nonzero"><path d="M155.695 89.275H.182V7.6c0-4.084 3.5-7.425 7.776-7.425h139.961c4.277 0 7.776 3.341 7.776 7.425v81.676z"/><ellipse cx="74.051" cy="100.413" rx="3.888" ry="3.712"/></g><path fill="#FFF4DB" fill-rule="nonzero" d="M8 8h140.062v74.338H8z"/><g transform="translate(54 21)" stroke="#FFD477" stroke-linejoin="round" stroke-width="8"><path stroke-linecap="round" d="M15 26.102l6.39 7.298L34.782 20"/><circle cx="24.5" cy="24.5" r="24.5"/></g></g></svg>