<svg viewBox="0 0 163 134" xmlns="http://www.w3.org/2000/svg"><g fill-rule="nonzero" fill="none"><path d="M99.75 118.976v-7.425H69.983v7.425c0 4.084-3.349 7.425-7.441 7.425H55.1c-2.232 0-3.72 1.485-3.72 3.712 0 2.228 1.488 3.713 3.72 3.713h59.53c2.233 0 3.721-1.485 3.721-3.713 0-2.227-1.488-3.712-3.72-3.712h-7.442c-4.092 0-7.44-3.341-7.44-7.425z" fill="#FFD477"/><path d="M155.559 111.55H21.616c-4.093 0-7.442-3.34-7.442-7.425V7.6c0-4.084 3.349-7.425 7.442-7.425h133.943C159.65.174 163 3.515 163 7.599v96.526c0 4.084-3.349 7.426-7.441 7.426z" fill="#FFF4DB"/><g fill="#FFD477" transform="translate(14)"><path d="M149 89.275H.174V7.6C.174 3.515 3.523.174 7.616.174h133.943C145.65.174 149 3.515 149 7.599v81.676z"/><ellipse cx="70.866" cy="100.413" rx="3.721" ry="3.712"/></g><path fill="#FFF4DB" d="M21.616 7.599h133.943V81.85H21.616z"/><g><path d="M44.546 132.769H7.425C3.34 132.769 0 129.44 0 125.37V51.397C0 47.33 3.341 44 7.425 44h37.122c4.083 0 7.424 3.329 7.424 7.397v73.974c0 4.069-3.341 7.398-7.425 7.398z" fill="#595A66"/><path d="M44.546 132.769H7.425C3.34 132.769 0 129.44 0 125.37V51.397C0 47.33 3.341 44 7.425 44h37.122c4.083 0 7.424 3.329 7.424 7.397v73.974c0 4.069-3.341 7.398-7.425 7.398z" fill="#FFD477"/><path fill="#FFF4DB" d="M7.425 58.795h37.122v59.179H7.425z"/><g transform="translate(18.503 51.253)" fill="#FFF4DB"><ellipse cx="7.483" cy="74.119" rx="3.712" ry="3.699"/><path d="M13.05 3.843H1.915C.8 3.843.058 3.103.058 1.993.058.885.8.146 1.914.146h11.137c1.113 0 1.856.74 1.856 1.849 0 1.11-.743 1.85-1.856 1.85z"/></g></g></g></svg>