<svg viewBox="0 0 143 134" xmlns="http://www.w3.org/2000/svg"><path d="M71.484 4.777C34.774 4.77 5.007 34.524 5 71.235a66.472 66.472 0 0 0 33.789 57.895 2.727 2.727 0 0 0 2.106.26 2.771 2.771 0 0 0 1.662-1.296l20.504-36.237a2.77 2.77 0 0 0-1.047-3.773c-9.34-5.246-12.658-17.07-7.413-26.41 5.246-9.339 17.07-12.657 26.41-7.412 9.339 5.246 12.657 17.07 7.412 26.41a19.394 19.394 0 0 1-7.413 7.412 2.77 2.77 0 0 0-1.047 3.773l20.448 36.237a2.77 2.77 0 0 0 3.769 1.047c31.973-18.039 43.269-58.582 25.23-90.555A66.472 66.472 0 0 0 71.484 4.777z" fill="#FFF4DB" fill-rule="nonzero" stroke="#FFD477" stroke-width="8" stroke-linejoin="round"/></svg>