<svg viewBox="0 0 126 134" xmlns="http://www.w3.org/2000/svg"><g fill-rule="nonzero" fill="none"><path d="M11.777 54.96c6.494 0 11.778-5.283 11.778-11.776 0-.804-.082-1.588-.235-2.348l13.25-7.95c.814.891 1.713 1.709 2.688 2.443v20.307a11.729 11.729 0 0 0-3.926-.675c-6.494 0-11.777 5.283-11.777 11.777V91.64a19.497 19.497 0 0 0 5.75 13.88c2.051 2.648 9.953 7.301 9.953 18.084v6.47A3.925 3.925 0 0 0 43.184 134h54.96a3.925 3.925 0 0 0 3.926-3.926v-8.812c0-7.354 3.17-12.747 3.292-13.073a43.393 43.393 0 0 0 4.56-19.312v-29.99c0-6.494-5.284-11.778-11.777-11.778a11.72 11.72 0 0 0-4.341.833c-1.362-4.998-5.94-8.684-11.363-8.684a11.734 11.734 0 0 0-7.851 3.005 11.734 11.734 0 0 0-7.852-3.005c-1.376 0-2.697.239-3.925.675v-4.604a19.735 19.735 0 0 0 6.811-9.42l32.72 4.09c1.158 5.287 5.874 9.259 11.504 9.259 6.494 0 11.777-5.284 11.777-11.778 0-6.493-5.283-11.777-11.777-11.777-4.6 0-8.589 2.652-10.527 6.505l-32.72-4.09C69.826 7.998 61.35 0 51.035 0 40.212 0 31.406 8.805 31.406 19.629c0 2.252.393 4.454 1.126 6.523l-13.258 7.955a11.728 11.728 0 0 0-7.497-2.7C5.283 31.406 0 36.69 0 43.183 0 49.677 5.283 54.96 11.777 54.96z" fill="#FFD477"/><path d="M113.848 23.555a3.93 3.93 0 0 1 3.925 3.925 3.93 3.93 0 0 1-3.925 3.926 3.93 3.93 0 0 1-3.926-3.926 3.93 3.93 0 0 1 3.926-3.925zM66.738 47.11a3.93 3.93 0 0 1 3.926 3.925v15.703a3.925 3.925 0 1 0 7.852 0V51.035a3.93 3.93 0 0 1 3.925-3.926 3.93 3.93 0 0 1 3.926 3.926V74.59a3.925 3.925 0 1 0 7.852 0V58.887a3.93 3.93 0 0 1 3.926-3.926 3.93 3.93 0 0 1 3.925 3.926v29.99c0 5.456-1.29 10.92-3.73 15.801-.191.517-4.121 7.034-4.121 16.584v4.886h-47.11v-2.544c0-14.589-10.482-21.28-12.253-23.636a11.7 11.7 0 0 1-3.45-8.328V66.738a3.93 3.93 0 0 1 3.926-3.925 3.93 3.93 0 0 1 3.926 3.925v15.703a3.925 3.925 0 1 0 7.851 0v-54.96a3.926 3.926 0 0 1 3.752-3.917l1.337.167a3.933 3.933 0 0 1 2.763 3.75v39.257a3.925 3.925 0 1 0 7.852 0V51.035a3.93 3.93 0 0 1 3.925-3.926zM51.035 7.852c6.494 0 11.778 5.283 11.778 11.777a11.71 11.71 0 0 1-.68 3.916c-1.636-4.602-5.988-7.79-10.982-7.839-.02 0-.038 0-.058-.002h-.058c-5.115 0-9.476 3.277-11.098 7.841a11.71 11.71 0 0 1-.68-3.916c0-6.494 5.284-11.777 11.778-11.777zM11.777 39.258a3.93 3.93 0 0 1 3.926 3.926 3.93 3.93 0 0 1-3.926 3.925 3.93 3.93 0 0 1-3.925-3.925 3.93 3.93 0 0 1 3.925-3.926z" fill="#FFF4DB"/></g></svg>